<svg xmlns="http://www.w3.org/2000/svg" width="20" height="21" viewBox="0 0 20 21" fill="none" class="icon icon-search">
  <path fill-rule="evenodd" clip-rule="evenodd" d="M13.526 12.1378C13.2878 12.4888 13.0155 12.8191 12.7113 13.1233C12.0824 13.7523 11.3358 14.2512 10.5141 14.5916C9.69241 14.932 8.81173 15.1072 7.92234 15.1072C7.03295 15.1072 6.15227 14.932 5.33058 14.5916C4.50889 14.2512 3.76228 13.7523 3.13339 13.1233C2.5045 12.4944 2.00563 11.7477 1.66527 10.9259C1.39079 10.2631 1.22373 9.56198 1.16935 8.84886C1.28025 10.3408 1.88333 11.7617 2.89467 12.8823C4.0683 14.1827 5.70033 14.9774 7.44768 15.0994C9.19503 15.2214 10.9216 14.6611 12.2645 13.5363L12.6423 13.2198L16.3651 16.9362L12.6466 13.2172L12.9832 12.8374C13.1803 12.6151 13.3614 12.3813 13.526 12.1378ZM7.88398 0.500078C9.91448 0.491046 11.8694 1.26967 13.3378 2.67227C14.8062 4.07487 15.6737 5.9922 15.758 8.02122C15.8352 9.88026 15.2494 11.7004 14.1146 13.161L19.5762 18.6233C19.6807 18.718 19.7657 18.8323 19.8262 18.9598C19.8899 19.094 19.9252 19.2399 19.9298 19.3883C19.9345 19.5368 19.9084 19.6846 19.8533 19.8225C19.7981 19.9604 19.715 20.0854 19.6093 20.1897C19.5035 20.294 19.3774 20.3752 19.2387 20.4285C19.1001 20.4817 18.9519 20.5056 18.8036 20.4989C18.6552 20.4921 18.5099 20.4548 18.3766 20.3892C18.2514 20.3275 18.1394 20.2422 18.0469 20.1379L12.5675 14.6681C11.0736 15.767 9.2333 16.3045 7.37265 16.1747C5.34706 16.0333 3.45515 15.112 2.09464 13.6045C0.734122 12.097 0.0109623 10.1207 0.0771748 8.09097C0.143387 6.06128 0.993814 4.1363 2.44969 2.7207C3.90556 1.30509 5.85348 0.509109 7.88398 0.500078ZM7.92234 2.6382C6.41197 2.6382 4.96345 3.23827 3.89546 4.3064C3.36664 4.83528 2.94716 5.46316 2.66097 6.15418C2.37477 6.8452 2.22747 7.58582 2.22747 8.33378C2.22747 9.08173 2.37477 9.82236 2.66097 10.5134C2.94716 11.2044 3.36664 11.8323 3.89546 12.3612C4.42428 12.89 5.05208 13.3096 5.74301 13.5958C6.43394 13.882 7.17448 14.0294 7.92234 14.0294C8.6702 14.0294 9.41074 13.882 10.1017 13.5958C10.7926 13.3096 11.4204 12.89 11.9492 12.3612C13.0172 11.293 13.6172 9.84434 13.6172 8.33378C13.6172 6.82322 13.0172 5.37453 11.9492 4.3064C10.8812 3.23827 9.43271 2.6382 7.92234 2.6382Z" fill="#4A4A4A"></path>
</svg>